<?xml version="1.0" encoding="UTF-8"?>
<svg width="19px" height="20px" viewBox="0 0 19 20" version="1.1" xmlns="http://www.w3.org/2000/svg" xmlns:xlink="http://www.w3.org/1999/xlink">
    <!-- Generator: Sketch 42 (36781) - http://www.bohemiancoding.com/sketch -->
    <title>CLOSE</title>
    <desc>Created with Sketch.</desc>
    <defs></defs>
    <g id="FINAL-DESIGN" stroke="none" stroke-width="1" fill="none" fill-rule="evenodd">
        <g id="16" transform="translate(-343.000000, -77.000000)" fill="#FFFFFF">
            <g id="Overlay" transform="translate(0.000000, 64.000000)">
                <g id="CLOSE" transform="translate(342.000000, 12.000000)">
                    <path d="M7.9371485,1.37267083 C7.9371485,-0.00831809711 9.04681055,-1.12783082 10.4371485,-1.12783082 L10.4371485,-1.12783082 C11.8178604,-1.12783082 12.9371485,-0.00245137472 12.9371485,1.37267083 L12.9371485,20.3716675 C12.9371485,21.7526565 11.8274864,22.8721692 10.4371485,22.8721692 L10.4371485,22.8721692 C9.05643662,22.8721692 7.9371485,21.7467897 7.9371485,20.3716675 L7.9371485,1.37267083 Z" id="Rectangle-122-Copy" transform="translate(10.437148, 10.872169) rotate(-225.000000) translate(-10.437148, -10.872169) "></path>
                    <path d="M7.9371485,1.37267083 C7.9371485,-0.00831809711 9.04681055,-1.12783082 10.4371485,-1.12783082 L10.4371485,-1.12783082 C11.8178604,-1.12783082 12.9371485,-0.00245137472 12.9371485,1.37267083 L12.9371485,20.3716675 C12.9371485,21.7526565 11.8274864,22.8721692 10.4371485,22.8721692 L10.4371485,22.8721692 C9.05643662,22.8721692 7.9371485,21.7467897 7.9371485,20.3716675 L7.9371485,1.37267083 Z" id="Rectangle-122-Copy-2" transform="translate(10.437148, 10.872169) rotate(-135.000000) translate(-10.437148, -10.872169) "></path>
                </g>
            </g>
        </g>
    </g>
</svg>